# File produced by Open Asset Import Library (http://www.assimp.sf.net)
# (assimp v3.0.1262)

mtllib sphere_low.obj.obj.mtl

# 240 vertex positions
v  0.270598 0.92388 0.270598
v  0.5 0.707107 0.5
v  0.707107 0.707107 -5.58617e-16
v  0.382683 0.92388 -5.58617e-16
v  -9.77581e-16 0.92388 0.382683
v  -9.77581e-16 0.707107 0.707107
v  0.5 0.707107 0.5
v  0.270598 0.92388 0.270598
v  -0.270598 0.92388 0.270598
v  -0.5 0.707107 0.5
v  -9.77581e-16 0.707107 0.707107
v  -9.77581e-16 0.92388 0.382683
v  -0.382683 0.92388 -5.58617e-16
v  -0.707107 0.707107 -5.58617e-16
v  -0.5 0.707107 0.5
v  -0.270598 0.92388 0.270598
v  -0.270598 0.92388 -0.270598
v  -0.5 0.707107 -0.5
v  -0.707107 0.707107 -5.58617e-16
v  -0.382683 0.92388 -5.58617e-16
v  -9.77581e-16 0.92388 -0.382683
v  -1.15215e-15 0.707107 -0.707107
v  -0.5 0.707107 -0.5
v  -0.270598 0.92388 -0.270598
v  0.270598 0.92388 -0.270598
v  0.5 0.707107 -0.5
v  -1.15215e-15 0.707107 -0.707107
v  -9.77581e-16 0.92388 -0.382683
v  0.382683 0.92388 -5.58617e-16
v  0.707107 0.707107 -5.58617e-16
v  0.5 0.707107 -0.5
v  0.270598 0.92388 -0.270598
v  0.5 0.707107 0.5
v  0.653282 0.382683 0.653282
v  0.92388 0.382683 -5.58617e-16
v  0.707107 0.707107 -5.58617e-16
v  -9.77581e-16 0.707107 0.707107
v  -9.77581e-16 0.382683 0.92388
v  0.653282 0.382683 0.653282
v  0.5 0.707107 0.5
v  -0.5 0.707107 0.5
v  -0.653282 0.382683 0.653282
v  -9.77581e-16 0.382683 0.92388
v  -9.77581e-16 0.707107 0.707107
v  -0.707107 0.707107 -5.58617e-16
v  -0.92388 0.382683 -5.58617e-16
v  -0.653282 0.382683 0.653282
v  -0.5 0.707107 0.5
v  -0.5 0.707107 -0.5
v  -0.653282 0.382683 -0.653282
v  -0.92388 0.382683 -5.58617e-16
v  -0.707107 0.707107 -5.58617e-16
v  -1.15215e-15 0.707107 -0.707107
v  -1.15215e-15 0.382683 -0.92388
v  -0.653282 0.382683 -0.653282
v  -0.5 0.707107 -0.5
v  0.5 0.707107 -0.5
v  0.653282 0.382683 -0.653282
v  -1.15215e-15 0.382683 -0.92388
v  -1.15215e-15 0.707107 -0.707107
v  0.707107 0.707107 -5.58617e-16
v  0.92388 0.382683 -5.58617e-16
v  0.653282 0.382683 -0.653282
v  0.5 0.707107 -0.5
v  0.653282 0.382683 0.653282
v  0.707107 1.22465e-16 0.707107
v  1 1.22465e-16 -5.58617e-16
v  0.92388 0.382683 -5.58617e-16
v  -9.77581e-16 0.382683 0.92388
v  -9.77581e-16 1.22465e-16 1
v  0.707107 1.22465e-16 0.707107
v  0.653282 0.382683 0.653282
v  -0.653282 0.382683 0.653282
v  -0.707107 1.22465e-16 0.707107
v  -9.77581e-16 1.22465e-16 1
v  -9.77581e-16 0.382683 0.92388
v  -0.92388 0.382683 -5.58617e-16
v  -1 1.22465e-16 -5.58617e-16
v  -0.707107 1.22465e-16 0.707107
v  -0.653282 0.382683 0.653282
v  -0.653282 0.382683 -0.653282
v  -0.707107 1.22465e-16 -0.707107
v  -1 1.22465e-16 -5.58617e-16
v  -0.92388 0.382683 -5.58617e-16
v  -1.15215e-15 0.382683 -0.92388
v  -1.15215e-15 1.22465e-16 -1
v  -0.707107 1.22465e-16 -0.707107
v  -0.653282 0.382683 -0.653282
v  0.653282 0.382683 -0.653282
v  0.707107 1.22465e-16 -0.707107
v  -1.15215e-15 1.22465e-16 -1
v  -1.15215e-15 0.382683 -0.92388
v  0.92388 0.382683 -5.58617e-16
v  1 1.22465e-16 -5.58617e-16
v  0.707107 1.22465e-16 -0.707107
v  0.653282 0.382683 -0.653282
v  0.707107 1.22465e-16 0.707107
v  0.653282 -0.382683 0.653282
v  0.92388 -0.382683 -5.58617e-16
v  1 1.22465e-16 -5.58617e-16
v  -9.77581e-16 1.22465e-16 1
v  -9.77581e-16 -0.382683 0.92388
v  0.653282 -0.382683 0.653282
v  0.707107 1.22465e-16 0.707107
v  -0.707107 1.22465e-16 0.707107
v  -0.653282 -0.382683 0.653282
v  -9.77581e-16 -0.382683 0.92388
v  -9.77581e-16 1.22465e-16 1
v  -1 1.22465e-16 -5.58617e-16
v  -0.92388 -0.382683 -5.58617e-16
v  -0.653282 -0.382683 0.653282
v  -0.707107 1.22465e-16 0.707107
v  -0.707107 1.22465e-16 -0.707107
v  -0.653282 -0.382683 -0.653282
v  -0.92388 -0.382683 -5.58617e-16
v  -1 1.22465e-16 -5.58617e-16
v  -1.15215e-15 1.22465e-16 -1
v  -1.15215e-15 -0.382683 -0.92388
v  -0.653282 -0.382683 -0.653282
v  -0.707107 1.22465e-16 -0.707107
v  0.707107 1.22465e-16 -0.707107
v  0.653282 -0.382683 -0.653282
v  -1.15215e-15 -0.382683 -0.92388
v  -1.15215e-15 1.22465e-16 -1
v  1 1.22465e-16 -5.58617e-16
v  0.92388 -0.382683 -5.58617e-16
v  0.653282 -0.382683 -0.653282
v  0.707107 1.22465e-16 -0.707107
v  0.653282 -0.382683 0.653282
v  0.5 -0.707107 0.5
v  0.707107 -0.707107 -5.58617e-16
v  0.92388 -0.382683 -5.58617e-16
v  -9.77581e-16 -0.382683 0.92388
v  -9.77581e-16 -0.707107 0.707107
v  0.5 -0.707107 0.5
v  0.653282 -0.382683 0.653282
v  -0.653282 -0.382683 0.653282
v  -0.5 -0.707107 0.5
v  -9.77581e-16 -0.707107 0.707107
v  -9.77581e-16 -0.382683 0.92388
v  -0.92388 -0.382683 -5.58617e-16
v  -0.707107 -0.707107 -5.58617e-16
v  -0.5 -0.707107 0.5
v  -0.653282 -0.382683 0.653282
v  -0.653282 -0.382683 -0.653282
v  -0.5 -0.707107 -0.5
v  -0.707107 -0.707107 -5.58617e-16
v  -0.92388 -0.382683 -5.58617e-16
v  -1.15215e-15 -0.382683 -0.92388
v  -1.15215e-15 -0.707107 -0.707107
v  -0.5 -0.707107 -0.5
v  -0.653282 -0.382683 -0.653282
v  0.653282 -0.382683 -0.653282
v  0.5 -0.707107 -0.5
v  -1.15215e-15 -0.707107 -0.707107
v  -1.15215e-15 -0.382683 -0.92388
v  0.92388 -0.382683 -5.58617e-16
v  0.707107 -0.707107 -5.58617e-16
v  0.5 -0.707107 -0.5
v  0.653282 -0.382683 -0.653282
v  0.5 -0.707107 0.5
v  0.270598 -0.92388 0.270598
v  0.382683 -0.92388 -5.58617e-16
v  0.707107 -0.707107 -5.58617e-16
v  -9.77581e-16 -0.707107 0.707107
v  -9.77581e-16 -0.92388 0.382683
v  0.270598 -0.92388 0.270598
v  0.5 -0.707107 0.5
v  -0.5 -0.707107 0.5
v  -0.270598 -0.92388 0.270598
v  -9.77581e-16 -0.92388 0.382683
v  -9.77581e-16 -0.707107 0.707107
v  -0.707107 -0.707107 -5.58617e-16
v  -0.382683 -0.92388 -5.58617e-16
v  -0.270598 -0.92388 0.270598
v  -0.5 -0.707107 0.5
v  -0.5 -0.707107 -0.5
v  -0.270598 -0.92388 -0.270598
v  -0.382683 -0.92388 -5.58617e-16
v  -0.707107 -0.707107 -5.58617e-16
v  -1.15215e-15 -0.707107 -0.707107
v  -9.77581e-16 -0.92388 -0.382683
v  -0.270598 -0.92388 -0.270598
v  -0.5 -0.707107 -0.5
v  0.5 -0.707107 -0.5
v  0.270598 -0.92388 -0.270598
v  -9.77581e-16 -0.92388 -0.382683
v  -1.15215e-15 -0.707107 -0.707107
v  0.707107 -0.707107 -5.58617e-16
v  0.382683 -0.92388 -5.58617e-16
v  0.270598 -0.92388 -0.270598
v  0.5 -0.707107 -0.5
v  -9.77581e-16 1 -5.58617e-16
v  0.270598 0.92388 0.270598
v  0.382683 0.92388 -5.58617e-16
v  -9.77581e-16 1 -5.58617e-16
v  -9.77581e-16 0.92388 0.382683
v  0.270598 0.92388 0.270598
v  -9.77581e-16 1 -5.58617e-16
v  -0.270598 0.92388 0.270598
v  -9.77581e-16 0.92388 0.382683
v  -9.77581e-16 1 -5.58617e-16
v  -0.382683 0.92388 -5.58617e-16
v  -0.270598 0.92388 0.270598
v  -9.77581e-16 1 -5.58617e-16
v  -0.270598 0.92388 -0.270598
v  -0.382683 0.92388 -5.58617e-16
v  -9.77581e-16 1 -5.58617e-16
v  -9.77581e-16 0.92388 -0.382683
v  -0.270598 0.92388 -0.270598
v  -9.77581e-16 1 -5.58617e-16
v  0.270598 0.92388 -0.270598
v  -9.77581e-16 0.92388 -0.382683
v  -9.77581e-16 1 -5.58617e-16
v  0.382683 0.92388 -5.58617e-16
v  0.270598 0.92388 -0.270598
v  0.270598 -0.92388 0.270598
v  -9.77581e-16 -1 -5.58617e-16
v  0.382683 -0.92388 -5.58617e-16
v  -9.77581e-16 -0.92388 0.382683
v  -9.77581e-16 -1 -5.58617e-16
v  0.270598 -0.92388 0.270598
v  -0.270598 -0.92388 0.270598
v  -9.77581e-16 -1 -5.58617e-16
v  -9.77581e-16 -0.92388 0.382683
v  -0.382683 -0.92388 -5.58617e-16
v  -9.77581e-16 -1 -5.58617e-16
v  -0.270598 -0.92388 0.270598
v  -0.270598 -0.92388 -0.270598
v  -9.77581e-16 -1 -5.58617e-16
v  -0.382683 -0.92388 -5.58617e-16
v  -9.77581e-16 -0.92388 -0.382683
v  -9.77581e-16 -1 -5.58617e-16
v  -0.270598 -0.92388 -0.270598
v  0.270598 -0.92388 -0.270598
v  -9.77581e-16 -1 -5.58617e-16
v  -9.77581e-16 -0.92388 -0.382683
v  0.382683 -0.92388 -5.58617e-16
v  -9.77581e-16 -1 -5.58617e-16
v  0.270598 -0.92388 -0.270598

# 240 UV coordinates
vt 0.00105702 0.998943 0
vt 0.00195312 0.998047 0
vt 0.00276214 1 0
vt 0.00149486 1 0
vt -3.81867e-18 0.998505 0
vt -3.81867e-18 0.997238 0
vt 0.00195312 0.998047 0
vt 0.00105702 0.998943 0
vt -0.00105702 0.998943 0
vt -0.00195312 0.998047 0
vt -3.81867e-18 0.997238 0
vt -3.81867e-18 0.998505 0
vt -0.00149486 1 0
vt -0.00276214 1 0
vt -0.00195312 0.998047 0
vt -0.00105702 0.998943 0
vt -0.00105702 1.00106 0
vt -0.00195312 1.00195 0
vt -0.00276214 1 0
vt -0.00149486 1 0
vt -3.81867e-18 1.00149 0
vt -4.50058e-18 1.00276 0
vt -0.00195312 1.00195 0
vt -0.00105702 1.00106 0
vt 0.00105702 1.00106 0
vt 0.00195312 1.00195 0
vt -4.50058e-18 1.00276 0
vt -3.81867e-18 1.00149 0
vt 0.00149486 1 0
vt 0.00276214 1 0
vt 0.00195312 1.00195 0
vt 0.00105702 1.00106 0
vt -0.00195312 1.00276 0
vt -0.00255188 1.00149 0
vt 2.1821e-18 1.00149 0
vt 2.1821e-18 1.00276 0
vt -3.81867e-18 1.00276 0
vt -3.81867e-18 1.00149 0
vt 0.00255188 1.00149 0
vt 0.00195312 1.00276 0
vt -0.00195312 1.00276 0
vt -0.00255188 1.00149 0
vt -3.81867e-18 1.00149 0
vt -3.81867e-18 1.00276 0
vt -2.1821e-18 1.00276 0
vt -2.1821e-18 1.00149 0
vt 0.00255188 1.00149 0
vt 0.00195312 1.00276 0
vt -0.00195312 1.00276 0
vt -0.00255188 1.00149 0
vt -2.1821e-18 1.00149 0
vt -2.1821e-18 1.00276 0
vt -4.50058e-18 1.00276 0
vt 4.50058e-18 1.00149 0
vt 0.00255188 1.00149 0
vt 0.00195312 1.00276 0
vt -0.00195312 1.00276 0
vt -0.00255188 1.00149 0
vt 4.50058e-18 1.00149 0
vt -4.50058e-18 1.00276 0
vt 2.1821e-18 1.00276 0
vt 2.1821e-18 1.00149 0
vt 0.00255188 1.00149 0
vt 0.00195312 1.00276 0
vt -0.00255188 1.00149 0
vt -0.00276214 1 0
vt 2.1821e-18 1 0
vt 2.1821e-18 1.00149 0
vt -3.81867e-18 1.00149 0
vt -3.81867e-18 1 0
vt 0.00276214 1 0
vt 0.00255188 1.00149 0
vt -0.00255188 1.00149 0
vt -0.00276214 1 0
vt -3.81867e-18 1 0
vt -3.81867e-18 1.00149 0
vt -2.1821e-18 1.00149 0
vt -2.1821e-18 1 0
vt 0.00276214 1 0
vt 0.00255188 1.00149 0
vt -0.00255188 1.00149 0
vt -0.00276214 1 0
vt -2.1821e-18 1 0
vt -2.1821e-18 1.00149 0
vt 4.50058e-18 1.00149 0
vt 4.50058e-18 1 0
vt 0.00276214 1 0
vt 0.00255188 1.00149 0
vt -0.00255188 1.00149 0
vt -0.00276214 1 0
vt 4.50058e-18 1 0
vt 4.50058e-18 1.00149 0
vt 2.1821e-18 1.00149 0
vt 2.1821e-18 1 0
vt 0.00276214 1 0
vt 0.00255188 1.00149 0
vt -0.00276214 1 0
vt -0.00255188 0.998505 0
vt 2.1821e-18 0.998505 0
vt 2.1821e-18 1 0
vt -3.81867e-18 1 0
vt -3.81867e-18 0.998505 0
vt 0.00255188 0.998505 0
vt 0.00276214 1 0
vt -0.00276214 1 0
vt -0.00255188 0.998505 0
vt -3.81867e-18 0.998505 0
vt -3.81867e-18 1 0
vt -2.1821e-18 1 0
vt -2.1821e-18 0.998505 0
vt 0.00255188 0.998505 0
vt 0.00276214 1 0
vt -0.00276214 1 0
vt -0.00255188 0.998505 0
vt -2.1821e-18 0.998505 0
vt -2.1821e-18 1 0
vt 4.50058e-18 1 0
vt 4.50058e-18 0.998505 0
vt 0.00255188 0.998505 0
vt 0.00276214 1 0
vt -0.00276214 1 0
vt -0.00255188 0.998505 0
vt 4.50058e-18 0.998505 0
vt 4.50058e-18 1 0
vt 2.1821e-18 1 0
vt 2.1821e-18 0.998505 0
vt 0.00255188 0.998505 0
vt 0.00276214 1 0
vt -0.00255188 0.998505 0
vt -0.00195312 0.997238 0
vt 2.1821e-18 0.997238 0
vt 2.1821e-18 0.998505 0
vt -3.81867e-18 0.998505 0
vt -3.81867e-18 0.997238 0
vt 0.00195312 0.997238 0
vt 0.00255188 0.998505 0
vt -0.00255188 0.998505 0
vt -0.00195312 0.997238 0
vt -3.81867e-18 0.997238 0
vt -3.81867e-18 0.998505 0
vt -2.1821e-18 0.998505 0
vt -2.1821e-18 0.997238 0
vt 0.00195312 0.997238 0
vt 0.00255188 0.998505 0
vt -0.00255188 0.998505 0
vt -0.00195312 0.997238 0
vt -2.1821e-18 0.997238 0
vt -2.1821e-18 0.998505 0
vt 4.50058e-18 0.998505 0
vt 4.50058e-18 0.997238 0
vt 0.00195312 0.997238 0
vt 0.00255188 0.998505 0
vt -0.00255188 0.998505 0
vt -0.00195312 0.997238 0
vt 4.50058e-18 0.997238 0
vt 4.50058e-18 0.998505 0
vt 2.1821e-18 0.998505 0
vt 2.1821e-18 0.997238 0
vt 0.00195312 0.997238 0
vt 0.00255188 0.998505 0
vt 0.00195312 1.00195 0
vt 0.00105702 1.00106 0
vt 0.00149486 1 0
vt 0.00276214 1 0
vt -3.81867e-18 1.00276 0
vt -3.81867e-18 1.00149 0
vt 0.00105702 1.00106 0
vt 0.00195312 1.00195 0
vt -0.00195312 1.00195 0
vt -0.00105702 1.00106 0
vt -3.81867e-18 1.00149 0
vt -3.81867e-18 1.00276 0
vt -0.00276214 1 0
vt -0.00149486 1 0
vt -0.00105702 1.00106 0
vt -0.00195312 1.00195 0
vt -0.00195312 0.998047 0
vt -0.00105702 0.998943 0
vt -0.00149486 1 0
vt -0.00276214 1 0
vt 4.50058e-18 0.997238 0
vt -3.81867e-18 0.998505 0
vt -0.00105702 0.998943 0
vt -0.00195312 0.998047 0
vt 0.00195312 0.998047 0
vt 0.00105702 0.998943 0
vt -3.81867e-18 0.998505 0
vt 4.50058e-18 0.997238 0
vt 0.00276214 1 0
vt 0.00149486 1 0
vt 0.00105702 0.998943 0
vt 0.00195312 0.998047 0
vt -3.81867e-18 1 0
vt 0.00105702 0.998943 0
vt 0.00149486 1 0
vt -3.81867e-18 1 0
vt -3.81867e-18 0.998505 0
vt 0.00105702 0.998943 0
vt -3.81867e-18 1 0
vt -0.00105702 0.998943 0
vt -3.81867e-18 0.998505 0
vt -3.81867e-18 1 0
vt -0.00149486 1 0
vt -0.00105702 0.998943 0
vt -3.81867e-18 1 0
vt -0.00105702 1.00106 0
vt -0.00149486 1 0
vt -3.81867e-18 1 0
vt -3.81867e-18 1.00149 0
vt -0.00105702 1.00106 0
vt -3.81867e-18 1 0
vt 0.00105702 1.00106 0
vt -3.81867e-18 1.00149 0
vt -3.81867e-18 1 0
vt 0.00149486 1 0
vt 0.00105702 1.00106 0
vt 0.00105702 1.00106 0
vt -3.81867e-18 1 0
vt 0.00149486 1 0
vt -3.81867e-18 1.00149 0
vt -3.81867e-18 1 0
vt 0.00105702 1.00106 0
vt -0.00105702 1.00106 0
vt -3.81867e-18 1 0
vt -3.81867e-18 1.00149 0
vt -0.00149486 1 0
vt -3.81867e-18 1 0
vt -0.00105702 1.00106 0
vt -0.00105702 0.998943 0
vt -3.81867e-18 1 0
vt -0.00149486 1 0
vt -3.81867e-18 0.998505 0
vt -3.81867e-18 1 0
vt -0.00105702 0.998943 0
vt 0.00105702 0.998943 0
vt -3.81867e-18 1 0
vt -3.81867e-18 0.998505 0
vt 0.00149486 1 0
vt -3.81867e-18 1 0
vt 0.00105702 0.998943 0

# 240 vertex normals
vn 0.260171 0.893945 0.260171
vn 0.469367 0.66779 0.469367
vn 0.663785 0.66779 -2.77556e-16
vn 0.367938 0.893945 -2.25514e-16
vn -6.59195e-17 0.893945 0.367938
vn -1.11022e-16 0.66779 0.663785
vn 0.469367 0.66779 0.469367
vn 0.260171 0.893945 0.260171
vn -0.260171 0.893945 0.260171
vn -0.469367 0.66779 0.469367
vn -1.11022e-16 0.66779 0.663785
vn -6.59195e-17 0.893945 0.367938
vn -0.367938 0.893945 6.93889e-18
vn -0.663785 0.66779 6.93889e-17
vn -0.469367 0.66779 0.469367
vn -0.260171 0.893945 0.260171
vn -0.260171 0.893945 -0.260171
vn -0.469367 0.66779 -0.469367
vn -0.663785 0.66779 6.93889e-17
vn -0.367938 0.893945 6.93889e-18
vn 1.04083e-17 0.893945 -0.367938
vn -4.16334e-17 0.66779 -0.663785
vn -0.469367 0.66779 -0.469367
vn -0.260171 0.893945 -0.260171
vn 0.260171 0.893945 -0.260171
vn 0.469367 0.66779 -0.469367
vn -4.16334e-17 0.66779 -0.663785
vn 1.04083e-17 0.893945 -0.367938
vn 0.367938 0.893945 -2.25514e-16
vn 0.663785 0.66779 -2.77556e-16
vn 0.469367 0.66779 -0.469367
vn 0.260171 0.893945 -0.260171
vn 0.469367 0.66779 0.469367
vn 0.599207 0.353017 0.599207
vn 0.847407 0.353017 -6.93889e-17
vn 0.663785 0.66779 -2.77556e-16
vn -1.11022e-16 0.66779 0.663785
vn -5.55112e-17 0.353017 0.847407
vn 0.599207 0.353017 0.599207
vn 0.469367 0.66779 0.469367
vn -0.469367 0.66779 0.469367
vn -0.599207 0.353017 0.599207
vn -5.55112e-17 0.353017 0.847407
vn -1.11022e-16 0.66779 0.663785
vn -0.663785 0.66779 6.93889e-17
vn -0.847407 0.353017 1.66533e-16
vn -0.599207 0.353017 0.599207
vn -0.469367 0.66779 0.469367
vn -0.469367 0.66779 -0.469367
vn -0.599207 0.353017 -0.599207
vn -0.847407 0.353017 1.66533e-16
vn -0.663785 0.66779 6.93889e-17
vn -4.16334e-17 0.66779 -0.663785
vn -1.11022e-16 0.353017 -0.847407
vn -0.599207 0.353017 -0.599207
vn -0.469367 0.66779 -0.469367
vn 0.469367 0.66779 -0.469367
vn 0.599207 0.353017 -0.599207
vn -1.11022e-16 0.353017 -0.847407
vn -4.16334e-17 0.66779 -0.663785
vn 0.663785 0.66779 -2.77556e-16
vn 0.847407 0.353017 -6.93889e-17
vn 0.599207 0.353017 -0.599207
vn 0.469367 0.66779 -0.469367
vn 0.599207 0.353017 0.599207
vn 0.642522 6.245e-17 0.642522
vn 0.908663 5.55112e-17 1.38778e-17
vn 0.847407 0.353017 -6.93889e-17
vn -5.55112e-17 0.353017 0.847407
vn 0 4.16334e-17 0.908663
vn 0.642522 6.245e-17 0.642522
vn 0.599207 0.353017 0.599207
vn -0.599207 0.353017 0.599207
vn -0.642522 2.77556e-17 0.642522
vn 0 4.16334e-17 0.908663
vn -5.55112e-17 0.353017 0.847407
vn -0.847407 0.353017 1.66533e-16
vn -0.908663 2.08167e-17 2.22045e-16
vn -0.642522 2.77556e-17 0.642522
vn -0.599207 0.353017 0.599207
vn -0.599207 0.353017 -0.599207
vn -0.642522 3.46945e-17 -0.642522
vn -0.908663 2.08167e-17 2.22045e-16
vn -0.847407 0.353017 1.66533e-16
vn -1.11022e-16 0.353017 -0.847407
vn -5.55112e-17 4.85723e-17 -0.908663
vn -0.642522 3.46945e-17 -0.642522
vn -0.599207 0.353017 -0.599207
vn 0.599207 0.353017 -0.599207
vn 0.642522 4.16334e-17 -0.642522
vn -5.55112e-17 4.85723e-17 -0.908663
vn -1.11022e-16 0.353017 -0.847407
vn 0.847407 0.353017 -6.93889e-17
vn 0.908663 5.55112e-17 1.38778e-17
vn 0.642522 4.16334e-17 -0.642522
vn 0.599207 0.353017 -0.599207
vn 0.642522 6.245e-17 0.642522
vn 0.599207 -0.353017 0.599207
vn 0.847407 -0.353017 -1.38778e-17
vn 0.908663 5.55112e-17 1.38778e-17
vn 0 4.16334e-17 0.908663
vn -5.55112e-17 -0.353017 0.847407
vn 0.599207 -0.353017 0.599207
vn 0.642522 6.245e-17 0.642522
vn -0.642522 2.77556e-17 0.642522
vn -0.599207 -0.353017 0.599207
vn -5.55112e-17 -0.353017 0.847407
vn 0 4.16334e-17 0.908663
vn -0.908663 2.08167e-17 2.22045e-16
vn -0.847407 -0.353017 1.52656e-16
vn -0.599207 -0.353017 0.599207
vn -0.642522 2.77556e-17 0.642522
vn -0.642522 3.46945e-17 -0.642522
vn -0.599207 -0.353017 -0.599207
vn -0.847407 -0.353017 1.52656e-16
vn -0.908663 2.08167e-17 2.22045e-16
vn -5.55112e-17 4.85723e-17 -0.908663
vn -1.11022e-16 -0.353017 -0.847407
vn -0.599207 -0.353017 -0.599207
vn -0.642522 3.46945e-17 -0.642522
vn 0.642522 4.16334e-17 -0.642522
vn 0.599207 -0.353017 -0.599207
vn -1.11022e-16 -0.353017 -0.847407
vn -5.55112e-17 4.85723e-17 -0.908663
vn 0.908663 5.55112e-17 1.38778e-17
vn 0.847407 -0.353017 -1.38778e-17
vn 0.599207 -0.353017 -0.599207
vn 0.642522 4.16334e-17 -0.642522
vn 0.599207 -0.353017 0.599207
vn 0.469367 -0.66779 0.469367
vn 0.663785 -0.66779 -1.59595e-16
vn 0.847407 -0.353017 -1.38778e-17
vn -5.55112e-17 -0.353017 0.847407
vn -7.63278e-17 -0.66779 0.663785
vn 0.469367 -0.66779 0.469367
vn 0.599207 -0.353017 0.599207
vn -0.599207 -0.353017 0.599207
vn -0.469367 -0.66779 0.469367
vn -7.63278e-17 -0.66779 0.663785
vn -5.55112e-17 -0.353017 0.847407
vn -0.847407 -0.353017 1.52656e-16
vn -0.663785 -0.66779 6.93889e-18
vn -0.469367 -0.66779 0.469367
vn -0.599207 -0.353017 0.599207
vn -0.599207 -0.353017 -0.599207
vn -0.469367 -0.66779 -0.469367
vn -0.663785 -0.66779 6.93889e-18
vn -0.847407 -0.353017 1.52656e-16
vn -1.11022e-16 -0.353017 -0.847407
vn -1.80411e-16 -0.66779 -0.663785
vn -0.469367 -0.66779 -0.469367
vn -0.599207 -0.353017 -0.599207
vn 0.599207 -0.353017 -0.599207
vn 0.469367 -0.66779 -0.469367
vn -1.80411e-16 -0.66779 -0.663785
vn -1.11022e-16 -0.353017 -0.847407
vn 0.847407 -0.353017 -1.38778e-17
vn 0.663785 -0.66779 -1.59595e-16
vn 0.469367 -0.66779 -0.469367
vn 0.599207 -0.353017 -0.599207
vn 0.469367 -0.66779 0.469367
vn 0.260171 -0.893945 0.260171
vn 0.367938 -0.893945 -1.73472e-16
vn 0.663785 -0.66779 -1.59595e-16
vn -7.63278e-17 -0.66779 0.663785
vn -5.89806e-17 -0.893945 0.367938
vn 0.260171 -0.893945 0.260171
vn 0.469367 -0.66779 0.469367
vn -0.469367 -0.66779 0.469367
vn -0.260171 -0.893945 0.260171
vn -5.89806e-17 -0.893945 0.367938
vn -7.63278e-17 -0.66779 0.663785
vn -0.663785 -0.66779 6.93889e-18
vn -0.367938 -0.893945 -1.17961e-16
vn -0.260171 -0.893945 0.260171
vn -0.469367 -0.66779 0.469367
vn -0.469367 -0.66779 -0.469367
vn -0.260171 -0.893945 -0.260171
vn -0.367938 -0.893945 -1.17961e-16
vn -0.663785 -0.66779 6.93889e-18
vn -1.80411e-16 -0.66779 -0.663785
vn -2.08167e-16 -0.893945 -0.367938
vn -0.260171 -0.893945 -0.260171
vn -0.469367 -0.66779 -0.469367
vn 0.469367 -0.66779 -0.469367
vn 0.260171 -0.893945 -0.260171
vn -2.08167e-16 -0.893945 -0.367938
vn -1.80411e-16 -0.66779 -0.663785
vn 0.663785 -0.66779 -1.59595e-16
vn 0.367938 -0.893945 -1.73472e-16
vn 0.260171 -0.893945 -0.260171
vn 0.469367 -0.66779 -0.469367
vn 1.9082e-17 0.977599 -4.16334e-17
vn 0.260171 0.893945 0.260171
vn 0.367938 0.893945 -2.25514e-16
vn 1.9082e-17 0.977599 -4.16334e-17
vn -6.59195e-17 0.893945 0.367938
vn 0.260171 0.893945 0.260171
vn 1.9082e-17 0.977599 -4.16334e-17
vn -0.260171 0.893945 0.260171
vn -6.59195e-17 0.893945 0.367938
vn 1.9082e-17 0.977599 -4.16334e-17
vn -0.367938 0.893945 6.93889e-18
vn -0.260171 0.893945 0.260171
vn 1.9082e-17 0.977599 -4.16334e-17
vn -0.260171 0.893945 -0.260171
vn -0.367938 0.893945 6.93889e-18
vn 1.9082e-17 0.977599 -4.16334e-17
vn 1.04083e-17 0.893945 -0.367938
vn -0.260171 0.893945 -0.260171
vn 1.9082e-17 0.977599 -4.16334e-17
vn 0.260171 0.893945 -0.260171
vn 1.04083e-17 0.893945 -0.367938
vn 1.9082e-17 0.977599 -4.16334e-17
vn 0.367938 0.893945 -2.25514e-16
vn 0.260171 0.893945 -0.260171
vn 0.260171 -0.893945 0.260171
vn -2.94903e-17 -0.977599 -5.55112e-17
vn 0.367938 -0.893945 -1.73472e-16
vn -5.89806e-17 -0.893945 0.367938
vn -2.94903e-17 -0.977599 -5.55112e-17
vn 0.260171 -0.893945 0.260171
vn -0.260171 -0.893945 0.260171
vn -2.94903e-17 -0.977599 -5.55112e-17
vn -5.89806e-17 -0.893945 0.367938
vn -0.367938 -0.893945 -1.17961e-16
vn -2.94903e-17 -0.977599 -5.55112e-17
vn -0.260171 -0.893945 0.260171
vn -0.260171 -0.893945 -0.260171
vn -2.94903e-17 -0.977599 -5.55112e-17
vn -0.367938 -0.893945 -1.17961e-16
vn -2.08167e-16 -0.893945 -0.367938
vn -2.94903e-17 -0.977599 -5.55112e-17
vn -0.260171 -0.893945 -0.260171
vn 0.260171 -0.893945 -0.260171
vn -2.94903e-17 -0.977599 -5.55112e-17
vn -2.08167e-16 -0.893945 -0.367938
vn 0.367938 -0.893945 -1.73472e-16
vn -2.94903e-17 -0.977599 -5.55112e-17
vn 0.260171 -0.893945 -0.260171

# Mesh 'defaultobject' with 64 faces
g defaultobject
usemtl DefaultMaterial
f  1/1/1 2/2/2 3/3/3 4/4/4
f  5/5/5 6/6/6 7/7/7 8/8/8
f  9/9/9 10/10/10 11/11/11 12/12/12
f  13/13/13 14/14/14 15/15/15 16/16/16
f  17/17/17 18/18/18 19/19/19 20/20/20
f  21/21/21 22/22/22 23/23/23 24/24/24
f  25/25/25 26/26/26 27/27/27 28/28/28
f  29/29/29 30/30/30 31/31/31 32/32/32
f  33/33/33 34/34/34 35/35/35 36/36/36
f  37/37/37 38/38/38 39/39/39 40/40/40
f  41/41/41 42/42/42 43/43/43 44/44/44
f  45/45/45 46/46/46 47/47/47 48/48/48
f  49/49/49 50/50/50 51/51/51 52/52/52
f  53/53/53 54/54/54 55/55/55 56/56/56
f  57/57/57 58/58/58 59/59/59 60/60/60
f  61/61/61 62/62/62 63/63/63 64/64/64
f  65/65/65 66/66/66 67/67/67 68/68/68
f  69/69/69 70/70/70 71/71/71 72/72/72
f  73/73/73 74/74/74 75/75/75 76/76/76
f  77/77/77 78/78/78 79/79/79 80/80/80
f  81/81/81 82/82/82 83/83/83 84/84/84
f  85/85/85 86/86/86 87/87/87 88/88/88
f  89/89/89 90/90/90 91/91/91 92/92/92
f  93/93/93 94/94/94 95/95/95 96/96/96
f  97/97/97 98/98/98 99/99/99 100/100/100
f  101/101/101 102/102/102 103/103/103 104/104/104
f  105/105/105 106/106/106 107/107/107 108/108/108
f  109/109/109 110/110/110 111/111/111 112/112/112
f  113/113/113 114/114/114 115/115/115 116/116/116
f  117/117/117 118/118/118 119/119/119 120/120/120
f  121/121/121 122/122/122 123/123/123 124/124/124
f  125/125/125 126/126/126 127/127/127 128/128/128
f  129/129/129 130/130/130 131/131/131 132/132/132
f  133/133/133 134/134/134 135/135/135 136/136/136
f  137/137/137 138/138/138 139/139/139 140/140/140
f  141/141/141 142/142/142 143/143/143 144/144/144
f  145/145/145 146/146/146 147/147/147 148/148/148
f  149/149/149 150/150/150 151/151/151 152/152/152
f  153/153/153 154/154/154 155/155/155 156/156/156
f  157/157/157 158/158/158 159/159/159 160/160/160
f  161/161/161 162/162/162 163/163/163 164/164/164
f  165/165/165 166/166/166 167/167/167 168/168/168
f  169/169/169 170/170/170 171/171/171 172/172/172
f  173/173/173 174/174/174 175/175/175 176/176/176
f  177/177/177 178/178/178 179/179/179 180/180/180
f  181/181/181 182/182/182 183/183/183 184/184/184
f  185/185/185 186/186/186 187/187/187 188/188/188
f  189/189/189 190/190/190 191/191/191 192/192/192
f  193/193/193 194/194/194 195/195/195
f  196/196/196 197/197/197 198/198/198
f  199/199/199 200/200/200 201/201/201
f  202/202/202 203/203/203 204/204/204
f  205/205/205 206/206/206 207/207/207
f  208/208/208 209/209/209 210/210/210
f  211/211/211 212/212/212 213/213/213
f  214/214/214 215/215/215 216/216/216
f  217/217/217 218/218/218 219/219/219
f  220/220/220 221/221/221 222/222/222
f  223/223/223 224/224/224 225/225/225
f  226/226/226 227/227/227 228/228/228
f  229/229/229 230/230/230 231/231/231
f  232/232/232 233/233/233 234/234/234
f  235/235/235 236/236/236 237/237/237
f  238/238/238 239/239/239 240/240/240

